HIERARCHY
ROOT reference
{
  OFFSET -65.3212 -1.93545 -120.338
  CHANNELS 6 Xposition Yposition Zposition Zrotation Xrotation Yrotation
  JOINT Hips
  {
    OFFSET 0 78.7191 0
    CHANNELS 6 Xposition Yposition Zposition Zrotation Xrotation Yrotation
    JOINT Chest
    {
      OFFSET 0 8.7983 -4.7612
      CHANNELS 6 Xposition Yposition Zposition Zrotation Xrotation Yrotation
      JOINT Chest2
      {
        OFFSET 0 8.0291 0.4195
        CHANNELS 6 Xposition Yposition Zposition Zrotation Xrotation Yrotation
        JOINT Chest3
        {
          OFFSET 0 9.9351 -2.2114
          CHANNELS 6 Xposition Yposition Zposition Zrotation Xrotation Yrotation
          JOINT Neck
          {
            OFFSET 0 22.3885 -0.4656
            CHANNELS 6 Xposition Yposition Zposition Zrotation Xrotation Yrotation
            JOINT Head
            {
              OFFSET -0.0001 12.643 3.4389
              CHANNELS 6 Xposition Yposition Zposition Zrotation Xrotation Yrotation
              End Site
              {
                OFFSET 0.0001 17.6655 0.5274
              }
            }
          }
          JOINT LeftCollar
          {
            OFFSET 2.2603 21.606 7.4023
            CHANNELS 6 Xposition Yposition Zposition Zrotation Xrotation Yrotation
            JOINT LeftShoulder
            {
              OFFSET 13.5163 -1.1332 -5.0146
              CHANNELS 6 Xposition Yposition Zposition Zrotation Xrotation Yrotation
              JOINT LeftElbow
              {
                OFFSET -0.0995 -28.05 -0.2431
                CHANNELS 6 Xposition Yposition Zposition Zrotation Xrotation Yrotation
                JOINT LeftWrist
                {
                  OFFSET 0.0679 -23.3996 -0.1402
                  CHANNELS 6 Xposition Yposition Zposition Zrotation Xrotation Yrotation
                  JOINT LeftFinger1
                  {
                    OFFSET 0.7932 -9.069 2.5189
                    CHANNELS 6 Xposition Yposition Zposition Zrotation Xrotation Yrotation
                    JOINT LeftFinger11
                    {
                      OFFSET -0.8272 -3.3923 0.5977
                      CHANNELS 6 Xposition Yposition Zposition Zrotation Xrotation Yrotation
                      JOINT LeftFinger12
                      {
                        OFFSET -0.5649 -2.3158 0.4082
                        CHANNELS 6 Xposition Yposition Zposition Zrotation Xrotation Yrotation
                        End Site
                        {
                          OFFSET -0.4919 -1.6479 0.2673
                        }
                      }
                    }
                  }
                  JOINT LeftFinger2
                  {
                    OFFSET 0.9159 -9.2044 0.2193
                    CHANNELS 6 Xposition Yposition Zposition Zrotation Xrotation Yrotation
                    JOINT LeftFinger21
                    {
                      OFFSET 0.0117 -4.1944 -0.0248
                      CHANNELS 6 Xposition Yposition Zposition Zrotation Xrotation Yrotation
                      JOINT LeftFinger22
                      {
                        OFFSET 0.0071 -2.3249 -0.0142
                        CHANNELS 6 Xposition Yposition Zposition Zrotation Xrotation Yrotation
                        End Site
                        {
                          OFFSET -0.1475 -2.0882 0.0028
                        }
                      }
                    }
                  }
                  JOINT LeftFinger3
                  {
                    OFFSET 0.6113 -8.7231 -2.0637
                    CHANNELS 6 Xposition Yposition Zposition Zrotation Xrotation Yrotation
                    JOINT LeftFinger31
                    {
                      OFFSET -0.1927 -3.8059 -0.2383
                      CHANNELS 6 Xposition Yposition Zposition Zrotation Xrotation Yrotation
                      JOINT LeftFinger32
                      {
                        OFFSET -0.1091 -2.1688 -0.1362
                        CHANNELS 6 Xposition Yposition Zposition Zrotation Xrotation Yrotation
                        End Site
                        {
                          OFFSET -0.2358 -1.9176 -0.0906
                        }
                      }
                    }
                  }
                  JOINT LeftFinger4
                  {
                    OFFSET -0.6151 -8.0947 -3.5641
                    CHANNELS 6 Xposition Yposition Zposition Zrotation Xrotation Yrotation
                    JOINT LeftFinger41
                    {
                      OFFSET -0.4882 -2.341 -0.6462
                      CHANNELS 6 Xposition Yposition Zposition Zrotation Xrotation Yrotation
                      JOINT LeftFinger42
                      {
                        OFFSET -0.3575 -1.7167 -0.4742
                        CHANNELS 6 Xposition Yposition Zposition Zrotation Xrotation Yrotation
                        End Site
                        {
                          OFFSET -0.4187 -1.5237 -0.3496
                        }
                      }
                    }
                  }
                  JOINT LeftFinger0
                  {
                    OFFSET -1.42 -1.8761 1.4223
                    CHANNELS 6 Xposition Yposition Zposition Zrotation Xrotation Yrotation
                    JOINT LeftFinger01
                    {
                      OFFSET -1.1471 -3.4929 2.6334
                      CHANNELS 6 Xposition Yposition Zposition Zrotation Xrotation Yrotation
                      JOINT LeftFinger02
                      {
                        OFFSET -0.823 -2.3 1.6571
                        CHANNELS 6 Xposition Yposition Zposition Zrotation Xrotation Yrotation
                        End Site
                        {
                          OFFSET -0.5822 -1.6914 1.1582
                        }
                      }
                    }
                  }
                }
              }
            }
          }
          JOINT RightCollar
          {
            OFFSET -2.2603 21.606 7.4023
            CHANNELS 6 Xposition Yposition Zposition Zrotation Xrotation Yrotation
            JOINT RightShoulder
            {
              OFFSET -13.5187 -1.1334 -5.0155
              CHANNELS 6 Xposition Yposition Zposition Zrotation Xrotation Yrotation
              JOINT RightElbow
              {
                OFFSET 0.0994 -28.0499 -0.2431
                CHANNELS 6 Xposition Yposition Zposition Zrotation Xrotation Yrotation
                JOINT RightWrist
                {
                  OFFSET -0.0679 -23.3996 -0.1402
                  CHANNELS 6 Xposition Yposition Zposition Zrotation Xrotation Yrotation
                  JOINT RightFinger1
                  {
                    OFFSET -0.7932 -9.0691 2.5189
                    CHANNELS 6 Xposition Yposition Zposition Zrotation Xrotation Yrotation
                    JOINT RightFinger11
                    {
                      OFFSET 0.8272 -3.3923 0.5977
                      CHANNELS 6 Xposition Yposition Zposition Zrotation Xrotation Yrotation
                      JOINT RightFinger12
                      {
                        OFFSET 0.565 -2.3158 0.4082
                        CHANNELS 6 Xposition Yposition Zposition Zrotation Xrotation Yrotation
                        End Site
                        {
                          OFFSET 0.4919 -1.6479 0.2673
                        }
                      }
                    }
                  }
                  JOINT RightFinger2
                  {
                    OFFSET -0.916 -9.2044 0.2193
                    CHANNELS 6 Xposition Yposition Zposition Zrotation Xrotation Yrotation
                    JOINT RightFinger21
                    {
                      OFFSET -0.0117 -4.1944 -0.0248
                      CHANNELS 6 Xposition Yposition Zposition Zrotation Xrotation Yrotation
                      JOINT RightFinger22
                      {
                        OFFSET -0.0071 -2.3249 -0.0142
                        CHANNELS 6 Xposition Yposition Zposition Zrotation Xrotation Yrotation
                        End Site
                        {
                          OFFSET 0.1475 -2.0882 0.0028
                        }
                      }
                    }
                  }
                  JOINT RightFinger3
                  {
                    OFFSET -0.6113 -8.7231 -2.0637
                    CHANNELS 6 Xposition Yposition Zposition Zrotation Xrotation Yrotation
                    JOINT RightFinger31
                    {
                      OFFSET 0.1927 -3.8059 -0.2383
                      CHANNELS 6 Xposition Yposition Zposition Zrotation Xrotation Yrotation
                      JOINT RightFinger32
                      {
                        OFFSET 0.1091 -2.1688 -0.1362
                        CHANNELS 6 Xposition Yposition Zposition Zrotation Xrotation Yrotation
                        End Site
                        {
                          OFFSET 0.2358 -1.9176 -0.0906
                        }
                      }
                    }
                  }
                  JOINT RightFinger4
                  {
                    OFFSET 0.6151 -8.0947 -3.564
                    CHANNELS 6 Xposition Yposition Zposition Zrotation Xrotation Yrotation
                    JOINT RightFinger41
                    {
                      OFFSET 0.4882 -2.341 -0.6462
                      CHANNELS 6 Xposition Yposition Zposition Zrotation Xrotation Yrotation
                      JOINT RightFinger42
                      {
                        OFFSET 0.3574 -1.7166 -0.4742
                        CHANNELS 6 Xposition Yposition Zposition Zrotation Xrotation Yrotation
                        End Site
                        {
                          OFFSET 0.4187 -1.5237 -0.3496
                        }
                      }
                    }
                  }
                  JOINT RightFinger0
                  {
                    OFFSET 1.4199 -1.8761 1.4221
                    CHANNELS 6 Xposition Yposition Zposition Zrotation Xrotation Yrotation
                    JOINT RightFinger01
                    {
                      OFFSET 1.1472 -3.4929 2.6336
                      CHANNELS 6 Xposition Yposition Zposition Zrotation Xrotation Yrotation
                      JOINT RightFinger02
                      {
                        OFFSET 0.8229 -2.3 1.6571
                        CHANNELS 6 Xposition Yposition Zposition Zrotation Xrotation Yrotation
                        End Site
                        {
                          OFFSET 0.5822 -1.6914 1.1582
                        }
                      }
                    }
                  }
                }
              }
            }
          }
        }
      }
    }
    JOINT RightHip
    {
      OFFSET -9.412 3.9771 -0.7758
      CHANNELS 6 Xposition Yposition Zposition Zrotation Xrotation Yrotation
      JOINT RightKnee
      {
        OFFSET -0.7531 -40.938 0
        CHANNELS 6 Xposition Yposition Zposition Zrotation Xrotation Yrotation
        JOINT RightAnkle
        {
          OFFSET 0 -40.1986 0
          CHANNELS 6 Xposition Yposition Zposition Zrotation Xrotation Yrotation
          JOINT RightToe
          {
            OFFSET 0 -4.4182 9.239
            CHANNELS 6 Xposition Yposition Zposition Zrotation Xrotation Yrotation
            End Site
            {
              OFFSET 0 0 6.1981
            }
          }
        }
      }
    }
    JOINT LeftHip
    {
      OFFSET 9.4119 3.9773 -0.7758
      CHANNELS 6 Xposition Yposition Zposition Zrotation Xrotation Yrotation
      JOINT LeftKnee
      {
        OFFSET 0.7532 -40.9383 0
        CHANNELS 6 Xposition Yposition Zposition Zrotation Xrotation Yrotation
        JOINT LeftAnkle
        {
          OFFSET 0 -40.1986 0
          CHANNELS 6 Xposition Yposition Zposition Zrotation Xrotation Yrotation
          JOINT LeftToe
          {
            OFFSET 0 -4.4182 9.239
            CHANNELS 6 Xposition Yposition Zposition Zrotation Xrotation Yrotation
            End Site
            {
              OFFSET 0 0 6.1981
            }
          }
        }
      }
    }
  }
}
MOTION
Frames:	4
Frame Time:	0.0333333
0.803742 -30.1361 1.48112 0 0 -0 4.77396e-015 78.7191 0 -3.33875 6.55382 -4.32423 8.88179e-016 8.7983 -4.7612 2.55279 3.31101 -2.2483 -8.32667e-017 8.0291 0.4195 5.24673 6.51572 -4.65368 -8.88179e-016 9.9351 -2.2114 5.24674 6.51574 -4.6537 -1.77636e-015 22.3885 -0.4656 4.7783 -3.18592 -28.9337 -0.0001 12.643 3.4389 10.5407 0.141023 -26.1817 2.2603 21.606 7.4023 9.62105 -1.8633 -6.24626 13.5163 -1.1332 -5.0146 11.0352 51.9301 48.2258 -0.0995 -28.05 -0.2431 -149.694 -55.4791 -103.902 0.0679 -23.3996 -0.1402 -16.8376 -6.48106 -39.6841 0.7932 -9.069 2.5189 -0.444804 12.0597 -16.6139 -0.8272 -3.3923 0.5977 -0.136896 -1.84559 -0.722369 -0.5649 -2.3158 0.4082 -1.38415 0.861855 -0.0638478 0.9159 -9.2044 0.2193 9.48626 -0.580263 -8.8077 0.0117 -4.1944 -0.0248 -12.2697 7.74844 -0.380549 0.0071 -2.3249 -0.0142 -13.0363 8.2299 -0.349234 0.6113 -8.7231 -2.0637 7.79322 3.66074 0.909789 -0.1927 -3.8059 -0.2383 -9.45438 6.58988 -0.714124 -0.1091 -2.1688 -0.1362 -11.101 7.74313 -0.727081 -0.6151 -8.0947 -3.5641 11.8384 17.2813 1.54509 -0.4882 -2.341 -0.6462 -8.80447 6.06778 -1.00385 -0.3575 -1.7167 -0.4742 -13.8191 9.56555 -1.15686 -1.42 -1.8761 1.4223 -7.55193 6.16812 1.51442 -1.1471 -3.4929 2.6334 4.61878 5.96204 -1.4941 -0.823 -2.3 1.6571 10.0017 12.3871 -3.7416 -2.2603 21.606 7.4023 -16.4616 -0.0376292 11.1132 -13.5187 -1.1334 -5.0155 -41.8345 13.531 -33.0197 0.0994 -28.0499 -0.2431 137.181 -51.8101 94.2611 -0.0679 -23.3996 -0.1402 -13.3696 -21.0235 68.6469 -0.7932 -9.0691 2.5189 29.9033 15.0791 7.54883 0.8272 -3.3923 0.5977 17.7566 5.9063 -1.21031 0.565 -2.3158 0.4082 23.8054 7.77454 -2.02796 -0.916 -9.2044 0.2193 15.4016 5.57048 7.06156 -0.0117 -4.1944 -0.0248 30.0687 9.86984 -1.92838 -0.0071 -2.3249 -0.0142 5.83196 1.98775 0.0376332 -0.6113 -8.7231 -2.0637 15.2757 13.4084 -2.16083 0.1927 -3.8059 -0.2383 26.7646 10.2255 -0.90573 0.1091 -2.1688 -0.1362 4.02141 1.55711 0.172366 0.6151 -8.0947 -3.564 15.9397 26.4314 -7.20302 0.4882 -2.341 -0.6462 25.9973 9.8288 -0.028609 0.3574 -1.7166 -0.4742 7.12868 2.69186 0.439504 1.4199 -1.8761 1.4221 9.11157 18.3036 -19.7854 1.1472 -3.4929 2.6336 -4.34907 9.26975 3.30178 0.8229 -2.3 1.6571 -8.30245 16.4189 6.52099 -9.412 3.9771 -0.7758 19.5733 -79.493 17.9757 -0.7531 -40.938 7.10543e-015 118.554 72.6149 -114.422 0 -40.1986 7.10543e-015 -9.2581 -16.9159 -12.2979 8.88178e-016 -4.4182 9.239 0.837464 5.66697 -0.367383 9.4119 3.9773 -0.7758 -48.2264 -76.865 -60.7457 0.7532 -40.9383 7.10543e-015 -166.189 75.0494 176.363 0 -40.1986 3.55271e-015 -8.80476 -6.37311 0.677359 0 -4.4182 9.239 0.00383152 -0.0344283 3.71427e-005 
0.927762 -30.1215 1.47254 0 0 -0 4.77396e-015 78.7191 0 -3.01697 6.89656 -4.54786 0 8.7983 -4.7612 2.63773 3.26252 -2.25294 -1.11022e-016 8.0291 0.4195 5.41487 6.41506 -4.66514 1.77636e-015 9.9351 -2.2114 5.41489 6.41509 -4.66516 -1.77636e-015 22.3885 -0.4656 4.95386 -2.93357 -28.8467 -0.0001 12.643 3.4389 10.8065 0.61788 -26.0454 2.2603 21.606 7.4023 9.47965 -1.91033 -6.26621 13.5163 -1.1332 -5.0146 10.8714 52.1075 48.1675 -0.0995 -28.05 -0.2431 -148.725 -56.2163 -103.116 0.0679 -23.3996 -0.1402 -17.3401 -7.45706 -39.4351 0.7932 -9.069 2.5189 -0.444817 12.0597 -16.6139 -0.8272 -3.3923 0.5977 -0.137057 -1.84557 -0.722397 -0.5649 -2.3158 0.4082 -1.38414 0.861874 -0.0638354 0.9159 -9.2044 0.2193 9.48629 -0.580275 -8.80787 0.0117 -4.1944 -0.0248 -12.2697 7.74845 -0.380553 0.0071 -2.3249 -0.0142 -13.0363 8.22989 -0.349233 0.6113 -8.7231 -2.0637 7.79321 3.6607 0.909767 -0.1927 -3.8059 -0.2383 -9.4544 6.58984 -0.714229 -0.1091 -2.1688 -0.1362 -11.101 7.74315 -0.727017 -0.6151 -8.0947 -3.5641 11.8384 17.2813 1.54496 -0.4882 -2.341 -0.6462 -8.80448 6.06774 -1.004 -0.3575 -1.7167 -0.4742 -13.8191 9.56557 -1.15685 -1.42 -1.8761 1.4223 -7.55195 6.16809 1.51443 -1.1471 -3.4929 2.6334 4.61883 5.962 -1.4942 -0.823 -2.3 1.6571 10.0017 12.3871 -3.74159 -2.2603 21.606 7.4023 -16.4617 -0.0377074 11.1132 -13.5187 -1.1334 -5.0155 -42.821 13.3468 -33.1957 0.0994 -28.0499 -0.2431 137.664 -50.861 94.3482 -0.0679 -23.3996 -0.1402 -14.2411 -20.5187 68.7624 -0.7932 -9.0691 2.5189 29.9033 15.0791 7.5488 0.8272 -3.3923 0.5977 17.7566 5.90628 -1.21029 0.565 -2.3158 0.4082 23.8054 7.77456 -2.02795 -0.916 -9.2044 0.2193 15.4016 5.57048 7.06156 -0.0117 -4.1944 -0.0248 30.0687 9.86984 -1.92838 -0.0071 -2.3249 -0.0142 5.83196 1.98774 0.0376294 -0.6113 -8.7231 -2.0637 15.2756 13.4085 -2.1608 0.1927 -3.8059 -0.2383 26.7646 10.2255 -0.905728 0.1091 -2.1688 -0.1362 4.02141 1.55711 0.17236 0.6151 -8.0947 -3.564 15.9397 26.4315 -7.20302 0.4882 -2.341 -0.6462 25.9973 9.82881 -0.0285958 0.3574 -1.7166 -0.4742 7.12869 2.69185 0.439518 1.4199 -1.8761 1.4221 9.1116 18.3036 -19.7854 1.1472 -3.4929 2.6336 -4.34907 9.26971 3.30179 0.8229 -2.3 1.6571 -8.30245 16.4189 6.52099 -9.412 3.9771 -0.7758 22.2597 -79.8535 20.4913 -0.7531 -40.938 -7.10543e-015 118.121 72.7209 -114.067 -1.33227e-015 -40.1986 3.55271e-015 -9.12564 -16.8747 -12.3681 0 -4.4182 9.239 0.837466 5.667 -0.367384 9.4119 3.9773 -0.7758 -47.4522 -77.4636 -60.2936 0.7532 -40.9383 -7.10543e-015 -165.944 75.0029 175.809 -1.77636e-015 -40.1986 3.55271e-015 -8.37635 -6.40044 0.470282 3.55271e-015 -4.4182 9.239 0.00382724 -0.0344226 2.86072e-005 
1.09823 -30.0999 1.45556 0 0 -0 4.88498e-015 78.7191 0 -2.33102 7.46977 -5.1044 0 8.7983 -4.7612 2.66104 3.15116 -2.2279 1.11022e-016 8.0291 0.4195 5.45495 6.19282 -4.61029 1.77636e-015 9.9351 -2.2114 5.45497 6.19285 -4.61031 1.77636e-015 22.3885 -0.4656 5.03263 -2.64331 -28.688 -0.0001 12.643 3.4389 10.8607 0.972621 -25.8757 2.2603 21.606 7.4023 9.33296 -1.9589 -6.28929 13.5163 -1.1332 -5.0146 10.3658 52.6223 48.475 -0.0995 -28.05 -0.2431 -147.549 -57.0403 -102.142 0.0679 -23.3996 -0.1402 -18.1342 -8.6958 -39.196 0.7932 -9.06901 2.5189 -0.444817 12.0597 -16.6138 -0.8272 -3.3923 0.5977 -0.137058 -1.84555 -0.722354 -0.5649 -2.3158 0.4082 -1.38412 0.861878 -0.0637899 0.9159 -9.20441 0.2193 9.48629 -0.580272 -8.80785 0.0117 -4.1944 -0.0248 -12.2697 7.74844 -0.380548 0.0071 -2.3249 -0.0142 -13.0363 8.22992 -0.349224 0.6113 -8.7231 -2.0637 7.79321 3.6607 0.909829 -0.1927 -3.8059 -0.2383 -9.45439 6.58983 -0.714234 -0.1091 -2.1688 -0.1362 -11.1011 7.74313 -0.727112 -0.6151 -8.0947 -3.5641 11.8384 17.2813 1.54497 -0.4882 -2.341 -0.6462 -8.80448 6.06773 -1.00396 -0.3575 -1.7167 -0.4742 -13.8191 9.56556 -1.15688 -1.42 -1.8761 1.4223 -7.55196 6.16806 1.51449 -1.1471 -3.4929 2.6334 4.61881 5.96199 -1.4942 -0.823 -2.3 1.6571 10.0017 12.3871 -3.7416 -2.2603 21.606 7.4023 -16.4617 -0.0377242 11.1132 -13.5187 -1.1334 -5.0155 -43.9722 13.2041 -33.2201 0.0994 -28.0499 -0.2431 138.293 -49.6641 94.4461 -0.0679 -23.3996 -0.1402 -15.3118 -20.0089 68.9277 -0.7932 -9.0691 2.5189 29.9033 15.0791 7.54882 0.8272 -3.3923 0.5977 17.7566 5.90629 -1.2103 0.565 -2.3158 0.4082 23.8053 7.77457 -2.02793 -0.916 -9.2044 0.2193 15.4015 5.5705 7.06161 -0.0117 -4.1944 -0.0248 30.0687 9.86983 -1.92837 -0.0071 -2.3249 -0.0142 5.83195 1.98776 0.0376401 -0.6113 -8.7231 -2.0637 15.2756 13.4085 -2.16073 0.1927 -3.8059 -0.2383 26.7646 10.2255 -0.905725 0.1091 -2.1688 -0.1362 4.02142 1.5571 0.172373 0.6151 -8.0947 -3.564 15.9397 26.4315 -7.20298 0.4882 -2.341 -0.6462 25.9973 9.82879 -0.0285683 0.3574 -1.7166 -0.4742 7.1287 2.69181 0.43954 1.4199 -1.8761 1.4221 9.11159 18.3036 -19.7854 1.1472 -3.4929 2.6336 -4.34906 9.26974 3.30177 0.8229 -2.3 1.6571 -8.30247 16.4189 6.521 -9.412 3.9771 -0.7758 27.2456 -80.3695 25.4131 -0.7531 -40.938 -7.10543e-015 118.006 72.7835 -114.059 -8.88178e-016 -40.1986 0 -9.04975 -16.8408 -12.4484 0 -4.4182 9.239 0.837469 5.66699 -0.367387 9.4119 3.9773 -0.7758 -47.2203 -78.3126 -60.1418 0.7532 -40.9383 0 -165.772 74.9919 175.463 1.77636e-015 -40.1986 -3.55271e-015 -8.16116 -6.42281 0.355667 1.77636e-015 -4.4182 9.239 0.00382008 -0.0344333 3.46272e-005 
1.30373 -30.0714 1.4323 0 0 -0 4.88498e-015 78.7191 0 -1.38003 8.1961 -5.91008 1.11022e-016 8.7983 -4.7612 2.63717 2.99582 -2.18075 -2.22045e-016 8.0291 0.4195 5.39745 5.88572 -4.50635 -1.77636e-015 9.9351 -2.2114 5.39747 5.88574 -4.50637 0 22.3885 -0.4656 5.04099 -2.33375 -28.4753 -0.0001 12.643 3.4389 10.7578 1.23556 -25.6838 2.2603 21.606 7.4023 9.18151 -2.00892 -6.31523 13.5163 -1.1332 -5.0146 9.6352 53.3684 49.051 -0.0995 -28.05 -0.2431 -146.186 -57.9107 -100.991 0.0679 -23.3996 -0.1402 -19.1205 -10.1069 -38.9764 0.7932 -9.069 2.5189 -0.444845 12.0597 -16.6137 -0.8272 -3.3923 0.5977 -0.137026 -1.84556 -0.722277 -0.5649 -2.3158 0.4082 -1.3841 0.861921 -0.0637111 0.9159 -9.2044 0.2193 9.48631 -0.580264 -8.80785 0.0117 -4.1944 -0.0248 -12.2697 7.74843 -0.38055 0.0071 -2.3249 -0.0142 -13.0363 8.2299 -0.349229 0.6113 -8.7231 -2.0637 7.79321 3.66071 0.909884 -0.1927 -3.8059 -0.2383 -9.4544 6.58984 -0.714228 -0.1091 -2.1688 -0.1362 -11.1011 7.74312 -0.727098 -0.6151 -8.0947 -3.5641 11.8384 17.2813 1.54497 -0.4882 -2.341 -0.6462 -8.80446 6.06774 -1.00399 -0.3575 -1.7167 -0.4742 -13.8191 9.56556 -1.15687 -1.42 -1.8761 1.4223 -7.55194 6.16811 1.51437 -1.1471 -3.4929 2.6334 4.61882 5.96199 -1.49419 -0.823 -2.3 1.6571 10.0017 12.3871 -3.7416 -2.2603 21.606 7.4023 -16.4617 -0.0377352 11.1132 -13.5187 -1.1334 -5.0155 -45.1119 13.3296 -33.1495 0.0994 -28.0499 -0.2431 139.263 -48.1056 94.8057 -0.0679 -23.3996 -0.1402 -16.5162 -19.5078 69.1317 -0.7932 -9.0691 2.5189 29.9033 15.0791 7.54881 0.8272 -3.3923 0.5977 17.7566 5.90634 -1.21024 0.565 -2.3158 0.4082 23.8054 7.77454 -2.02794 -0.916 -9.2044 0.2193 15.4015 5.57051 7.0617 -0.0117 -4.1944 -0.0248 30.0687 9.86984 -1.92838 -0.0071 -2.3249 -0.0142 5.83195 1.98774 0.0376499 -0.6113 -8.7231 -2.0637 15.2756 13.4084 -2.16087 0.1927 -3.8059 -0.2383 26.7646 10.2255 -0.905744 0.1091 -2.1688 -0.1362 4.02143 1.5571 0.172373 0.6151 -8.0947 -3.564 15.9396 26.4315 -7.20289 0.4882 -2.341 -0.6462 25.9973 9.82878 -0.0285716 0.3574 -1.7166 -0.4742 7.12871 2.69177 0.439618 1.4199 -1.8761 1.4221 9.11159 18.3036 -19.7854 1.1472 -3.4929 2.6336 -4.34906 9.26972 3.30178 0.8229 -2.3 1.6571 -8.30247 16.4189 6.521 -9.412 3.9771 -0.7758 34.5932 -80.8741 32.7719 -0.7531 -40.938 7.10543e-015 118.116 72.8143 -114.298 1.77636e-015 -40.1986 3.55271e-015 -9.02072 -16.8082 -12.5328 0 -4.4182 9.239 0.837478 5.66698 -0.367384 9.4119 3.9773 -0.7758 -47.4249 -79.3368 -60.2554 0.7532 -40.9383 0 -165.66 75.0018 175.284 0 -40.1986 -3.55271e-015 -8.10937 -6.44169 0.311633 -1.77636e-015 -4.4182 9.239 0.00382029 -0.0344429 4.21652e-005 
